<svg xmlns="http://www.w3.org/2000/svg" width="1280" height="720" viewBox="0 0 1280 720">
<rect width="1280" height="720" fill="#0B1220"/>
<text x="56" y="72" fill="#36D6B5" font-family="Consolas, 'Courier New', monospace" font-size="14" letter-spacing="2">05 · NEXT EXPERIMENT DESIGN</text>
<text x="56" y="116" fill="#F4F7FB" font-family="Georgia, 'Microsoft YaHei', serif" font-size="38" font-weight="700">下一步：从全量 sweep 转向 TOG-aware、bottleneck-driven DSE</text>
<text x="56" y="158" fill="#AAB8CC" font-family="'Microsoft YaHei', Arial, sans-serif" font-size="18">组合 A3C3 的设计空间与 Lumina 的低样本搜索，把 PyTorchSim 变成可学习的实验环境。</text>
<rect x="60" y="232" width="210" height="170" rx="14" fill="#162235" stroke="#4DA3FF" stroke-width="2"/><text x="84" y="276" fill="#4DA3FF" font-family="'Microsoft YaHei', Arial, sans-serif" font-size="20" font-weight="700">① Influence Map</text><text x="84" y="324" fill="#F4F7FB" font-family="'Microsoft YaHei', Arial, sans-serif" font-size="16"><tspan x="84" dy="0">compiler knob</tspan><tspan x="84" dy="28">→ MLIR / TOG</tspan><tspan x="84" dy="28">→ simulator metric</tspan></text>
<path d="M272 317 L318 317" stroke="#4DA3FF" stroke-width="3"/><polygon points="318,317 302,308 302,326" fill="#4DA3FF"/>
<rect x="330" y="232" width="210" height="170" rx="14" fill="#162235" stroke="#A78BFA" stroke-width="2"/><text x="354" y="276" fill="#A78BFA" font-family="'Microsoft YaHei', Arial, sans-serif" font-size="20" font-weight="700">② Motif probes</text><text x="354" y="324" fill="#F4F7FB" font-family="'Microsoft YaHei', Arial, sans-serif" font-size="16"><tspan x="354" dy="0">GEMM / Conv</tspan><tspan x="354" dy="28">attention / KV</tspan><tspan x="354" dy="28">small measured set</tspan></text>
<path d="M542 317 L588 317" stroke="#A78BFA" stroke-width="3"/><polygon points="588,317 572,308 572,326" fill="#A78BFA"/>
<rect x="600" y="232" width="210" height="170" rx="14" fill="#162235" stroke="#FFB454" stroke-width="2"/><text x="624" y="276" fill="#FFB454" font-family="'Microsoft YaHei', Arial, sans-serif" font-size="20" font-weight="700">③ Surrogate rank</text><text x="624" y="324" fill="#F4F7FB" font-family="'Microsoft YaHei', Arial, sans-serif" font-size="16"><tspan x="624" dy="0">预测 cycles</tspan><tspan x="624" dy="28">识别瓶颈</tspan><tspan x="624" dy="28">选信息量最大点</tspan></text>
<path d="M812 317 L858 317" stroke="#FFB454" stroke-width="3"/><polygon points="858,317 842,308 842,326" fill="#FFB454"/>
<rect x="870" y="232" width="210" height="170" rx="14" fill="#162235" stroke="#36D6B5" stroke-width="2"/><text x="894" y="276" fill="#36D6B5" font-family="'Microsoft YaHei', Arial, sans-serif" font-size="20" font-weight="700">④ Measured gate</text><text x="894" y="324" fill="#F4F7FB" font-family="'Microsoft YaHei', Arial, sans-serif" font-size="16"><tspan x="894" dy="0">TOGSim 验证</tspan><tspan x="894" dy="28">更新轨迹</tspan><tspan x="894" dy="28">排除假阳性</tspan></text>
<path d="M1082 317 L1128 317" stroke="#36D6B5" stroke-width="3"/><polygon points="1128,317 1112,308 1112,326" fill="#36D6B5"/>
<rect x="1140" y="232" width="80" height="170" rx="14" fill="#162235" stroke="#F4F7FB"/><text x="1180" y="286" text-anchor="middle" fill="#F4F7FB" font-family="'Microsoft YaHei', Arial, sans-serif" font-size="18" font-weight="700">Pareto</text><text x="1180" y="326" text-anchor="middle" fill="#AAB8CC" font-family="'Microsoft YaHei', Arial, sans-serif" font-size="15">verdict</text>
<rect x="60" y="486" width="1160" height="112" rx="14" fill="#1B2B40" stroke="#2A3A52"/>
<text x="88" y="528" fill="#F4F7FB" font-family="'Microsoft YaHei', Arial, sans-serif" font-size="22" font-weight="700">第一阶段的研究问题</text><text x="88" y="568" fill="#36D6B5" font-family="'Microsoft YaHei', Arial, sans-serif" font-size="19">少量 TOGSim measured runs，能否预测并筛掉大部分不可能成为 Pareto 最优的 HW × mapping 组合？</text>
<text x="1168" y="672" fill="#718096" font-family="Consolas, 'Courier New', monospace" font-size="12">16 / 16</text>
</svg>
