<svg xmlns="http://www.w3.org/2000/svg" width="1280" height="720" viewBox="0 0 1280 720">
<rect width="1280" height="720" fill="#0B1220" />
<text x="56" y="72" fill="#A78BFA" font-family="Consolas, 'Courier New', monospace" font-size="14" letter-spacing="2">03 · A3C3</text>
<text x="56" y="116" fill="#F4F7FB" font-family="Georgia, 'Microsoft YaHei', serif" font-size="38" font-weight="700">A3C3：把算法、实现、硬件放进同一张设计地图</text>
<text x="56" y="158" fill="#AAB8CC" font-family="'Microsoft YaHei', Arial, sans-serif" font-size="18">A3C3 是总框架：不同工作可以固定其中一层，也可以把三层一起搜索。</text>
<line x1="640" y1="560" x2="360" y2="250" stroke="#4DA3FF" stroke-width="3" /><line x1="640" y1="560" x2="920" y2="250" stroke="#36D6B5" stroke-width="3" /><line x1="640" y1="560" x2="640" y2="220" stroke="#A78BFA" stroke-width="3" />
<circle cx="640" cy="560" r="80" fill="#162235" stroke="#F4F7FB" stroke-width="2" />
<text x="640" y="550" text-anchor="middle" fill="#F4F7FB" font-family="'Microsoft YaHei', Arial, sans-serif" font-size="25" font-weight="700">联合目标</text><text x="640" y="582" text-anchor="middle" fill="#AAB8CC" font-family="Consolas, 'Courier New', monospace" font-size="15">QoR · QoS · resource</text>
<circle cx="360" cy="220" r="112" fill="#162235" stroke="#A78BFA" stroke-width="2" />
  <g transform="translate(325.0, 252.0) scale(2.25)" fill="#A78BFA">
    <path fill-rule="evenodd" clip-rule="evenodd" d="M5 11.5V14.5L6.5 16H9.5L11 14.5V11.5L12.2396 10.2604C13.3668 9.13324 14 7.60141 14 6.00736C14 2.69365 11.3137 0 8 0C4.68629 0 2 2.69365 2 6.00736C2 7.60141 2.63324 9.13324 3.76041 10.2604L5 11.5ZM7 9.87398V6H9V9.87398C10.7252 9.42994 12 7.86384 12 6C12 3.79086 10.2091 2 8 2C5.79086 2 4 3.79086 4 6C4 7.86384 5.27477 9.42994 7 9.87398Z" />
  </g><text x="360" y="320" text-anchor="middle" fill="#F4F7FB" font-family="'Microsoft YaHei', Arial, sans-serif" font-size="27" font-weight="700">A · Algorithm</text><text x="360" y="350" text-anchor="middle" fill="#AAB8CC" font-family="'Microsoft YaHei', Arial, sans-serif" font-size="15">拓扑 · 算子 · 量化</text>
<circle cx="640" cy="180" r="112" fill="#162235" stroke="#4DA3FF" stroke-width="2" />
  <g transform="translate(605.0, 212.0) scale(2.25)" fill="#4DA3FF">
    <path d="M1 5V3L8 0L15 3V5L8 8L1 5Z" />
    <path d="M8 16L1 13V11L8 14L15 11V13L8 16Z" />
    <path d="M1 9L8 12L15 9V7L8 10L1 7V9Z" />
  </g><text x="640" y="280" text-anchor="middle" fill="#F4F7FB" font-family="'Microsoft YaHei', Arial, sans-serif" font-size="27" font-weight="700">I · Implementation</text><text x="640" y="310" text-anchor="middle" fill="#AAB8CC" font-family="'Microsoft YaHei', Arial, sans-serif" font-size="15">tiling · mapping · dataflow</text>
<circle cx="920" cy="220" r="112" fill="#162235" stroke="#36D6B5" stroke-width="2" />
  <g transform="translate(885.0, 252.0) scale(2.25)" fill="#36D6B5">
    <path d="M9 7L10 0H8L2 7V9H7L6 16H8L14 9L14 7H9Z" />
  </g><text x="920" y="320" text-anchor="middle" fill="#F4F7FB" font-family="'Microsoft YaHei', Arial, sans-serif" font-size="27" font-weight="700">H · Hardware</text><text x="920" y="350" text-anchor="middle" fill="#AAB8CC" font-family="'Microsoft YaHei', Arial, sans-serif" font-size="15">compute · memory · network</text>
<path fill="#1B2B40" d="M90,438 H350 A10,10 0 0 1 360,448 V498 A10,10 0 0 1 350,508 H90 A10,10 0 0 1 80,498 V448 A10,10 0 0 1 90,438 Z" /><text x="102" y="480" fill="#A78BFA" font-family="'Microsoft YaHei', Arial, sans-serif" font-size="18" font-weight="700">Bundle library</text><text x="102" y="502" fill="#AAB8CC" font-family="'Microsoft YaHei', Arial, sans-serif" font-size="14">先筛掉明显不好的局部块</text>
<path fill="#1B2B40" d="M910,438 H1170 A10,10 0 0 1 1180,448 V498 A10,10 0 0 1 1170,508 H910 A10,10 0 0 1 900,498 V448 A10,10 0 0 1 910,438 Z" /><text x="922" y="480" fill="#36D6B5" font-family="'Microsoft YaHei', Arial, sans-serif" font-size="18" font-weight="700">Co-generation</text><text x="922" y="502" fill="#AAB8CC" font-family="'Microsoft YaHei', Arial, sans-serif" font-size="14">输出可部署系统</text>
<text x="1168" y="672" fill="#718096" font-family="Consolas, 'Courier New', monospace" font-size="12">08 / 16</text>
</svg>