<svg xmlns="http://www.w3.org/2000/svg" width="1280" height="720" viewBox="0 0 1280 720">
<rect width="1280" height="720" fill="#0B1220" />
<text x="56" y="72" fill="#A78BFA" font-family="Consolas, 'Courier New', monospace" font-size="14" letter-spacing="2">03.3 · HIDA / FIXED TOPOLOGY</text>
<text x="56" y="116" fill="#F4F7FB" font-family="Georgia, 'Microsoft YaHei', serif" font-size="38" font-weight="700">HIDA：固定程序时，核心问题变成“如何映射得更好”</text>
<text x="56" y="158" fill="#AAB8CC" font-family="'Microsoft YaHei', Arial, sans-serif" font-size="18">它用分层 IR 和数据流优化，处理固定计算逻辑下的 tiling、并行、buffer 和 streaming 耦合。</text>
<path fill="#162235" stroke="#2A3A52" d="M96,226 H408 A14,14 0 0 1 422,240 V512 A14,14 0 0 1 408,526 H96 A14,14 0 0 1 82,512 V240 A14,14 0 0 1 96,226 Z" />
  <g transform="translate(118.0, 258.0) scale(2.5)" fill="#A78BFA">
    <path d="M1 5V3L8 0L15 3V5L8 8L1 5Z" />
    <path d="M8 16L1 13V11L8 14L15 11V13L8 16Z" />
    <path d="M1 9L8 12L15 9V7L8 10L1 7V9Z" />
  </g><text x="118" y="336" fill="#A78BFA" font-family="'Microsoft YaHei', Arial, sans-serif" font-size="25" font-weight="700">Functional IR</text><text font-size="18" font-family="'Microsoft YaHei', Arial, sans-serif" fill="#F4F7FB" x="118" y="384">算子依赖</text><text font-size="18" font-family="'Microsoft YaHei', Arial, sans-serif" fill="#F4F7FB" x="118" y="416">循环与任务</text><text font-size="18" font-family="'Microsoft YaHei', Arial, sans-serif" fill="#F4F7FB" x="118" y="448">算法语义</text><path d="M430 376 L530 376" stroke="#A78BFA" stroke-width="3" /><polygon points="530,376 514,367 514,385" fill="#A78BFA" />
<path fill="#162235" stroke="#4DA3FF" d="M556,226 H868 A14,14 0 0 1 882,240 V512 A14,14 0 0 1 868,526 H556 A14,14 0 0 1 542,512 V240 A14,14 0 0 1 556,226 Z" />
  <g transform="translate(578.0, 258.0) scale(2.5)" fill="#4DA3FF">
    <path d="M5 4.79198C5.88295 4.4062 6.5 3.52516 6.5 2.5C6.5 1.11929 5.38071 0 4 0C2.61929 0 1.5 1.11929 1.5 2.5C1.5 3.52516 2.11705 4.4062 3 4.79198V11.208C2.11705 11.5938 1.5 12.4748 1.5 13.5C1.5 14.8807 2.61929 16 4 16C5.38071 16 6.5 14.8807 6.5 13.5C6.5 12.4748 5.88295 11.5938 5 11.208V9H13V4.79198C13.883 4.4062 14.5 3.52516 14.5 2.5C14.5 1.11929 13.3807 0 12 0C10.6193 0 9.5 1.11929 9.5 2.5C9.5 3.52516 10.117 4.4062 11 4.79198V7H5V4.79198Z" />
  </g><text x="578" y="336" fill="#4DA3FF" font-family="'Microsoft YaHei', Arial, sans-serif" font-size="25" font-weight="700">Structural IR</text><text font-size="18" font-family="'Microsoft YaHei', Arial, sans-serif" fill="#F4F7FB" x="578" y="384">硬件任务</text><text font-size="18" font-family="'Microsoft YaHei', Arial, sans-serif" fill="#F4F7FB" x="578" y="416">buffer 与 channel</text><text font-size="18" font-family="'Microsoft YaHei', Arial, sans-serif" fill="#F4F7FB" x="578" y="448">dataflow 与并行</text><path d="M890 376 L990 376" stroke="#4DA3FF" stroke-width="3" /><polygon points="990,376 974,367 974,385" fill="#4DA3FF" />
<path fill="#162235" stroke="#36D6B5" d="M1016,226 H1198 A14,14 0 0 1 1212,240 V512 A14,14 0 0 1 1198,526 H1016 A14,14 0 0 1 1002,512 V240 A14,14 0 0 1 1016,226 Z" />
  <g transform="translate(1050.0, 258.0) scale(2.5)" fill="#36D6B5">
    <path d="M9 7L10 0H8L2 7V9H7L6 16H8L14 9L14 7H9Z" />
  </g><text x="1050" y="336" fill="#36D6B5" font-family="'Microsoft YaHei', Arial, sans-serif" font-size="25" font-weight="700">Synthesis</text><text font-size="18" font-family="'Microsoft YaHei', Arial, sans-serif" fill="#F4F7FB" x="1048" y="384">HLS</text><text font-size="18" font-family="'Microsoft YaHei', Arial, sans-serif" fill="#F4F7FB" x="1048" y="416">IP</text><text font-size="18" font-family="'Microsoft YaHei', Arial, sans-serif" fill="#F4F7FB" x="1048" y="448">throughput</text><path fill="#1B2B40" d="M92,586 H1202 A10,10 0 0 1 1212,596 V632 A10,10 0 0 1 1202,642 H92 A10,10 0 0 1 82,632 V596 A10,10 0 0 1 92,586 Z" /><text x="108" y="621" fill="#FFB454" font-family="'Microsoft YaHei', Arial, sans-serif" font-size="18" font-weight="700">与 PyTorchSim 的对应关系：</text><text x="390" y="621" fill="#F4F7FB" font-family="'Microsoft YaHei', Arial, sans-serif" font-size="18">FX/ATen → MLIR → TOG → TOGSim，正好提供了跨层观察点。</text>
<text x="1168" y="672" fill="#718096" font-family="Consolas, 'Courier New', monospace" font-size="12">11 / 16</text>
</svg>