<svg xmlns="http://www.w3.org/2000/svg" width="1280" height="720" viewBox="0 0 1280 720">
<rect width="1280" height="720" fill="#0B1220" />
<text x="56" y="72" fill="#36D6B5" font-family="Consolas, 'Courier New', monospace" font-size="14" letter-spacing="2">05 · NEXT EXPERIMENT DESIGN</text>
<text x="56" y="116" fill="#F4F7FB" font-family="Georgia, 'Microsoft YaHei', serif" font-size="38" font-weight="700">下一步：从全量 sweep 转向 TOG-aware、bottleneck-driven DSE</text>
<text x="56" y="158" fill="#AAB8CC" font-family="'Microsoft YaHei', Arial, sans-serif" font-size="18">组合 A3C3 的设计空间与 Lumina 的低样本搜索，把 PyTorchSim 变成可学习的实验环境。</text>
<path fill="#162235" stroke="#4DA3FF" stroke-width="2" d="M74,232 H256 A14,14 0 0 1 270,246 V388 A14,14 0 0 1 256,402 H74 A14,14 0 0 1 60,388 V246 A14,14 0 0 1 74,232 Z" /><text x="84" y="276" fill="#4DA3FF" font-family="'Microsoft YaHei', Arial, sans-serif" font-size="20" font-weight="700">① Influence Map</text><text font-size="16" font-family="'Microsoft YaHei', Arial, sans-serif" fill="#F4F7FB" x="84" y="324">compiler knob</text><text font-size="16" font-family="'Microsoft YaHei', Arial, sans-serif" fill="#F4F7FB" x="84" y="352">→ MLIR / TOG</text><text font-size="16" font-family="'Microsoft YaHei', Arial, sans-serif" fill="#F4F7FB" x="84" y="380">→ simulator metric</text><path d="M272 317 L318 317" stroke="#4DA3FF" stroke-width="3" /><polygon points="318,317 302,308 302,326" fill="#4DA3FF" />
<path fill="#162235" stroke="#A78BFA" stroke-width="2" d="M344,232 H526 A14,14 0 0 1 540,246 V388 A14,14 0 0 1 526,402 H344 A14,14 0 0 1 330,388 V246 A14,14 0 0 1 344,232 Z" /><text x="354" y="276" fill="#A78BFA" font-family="'Microsoft YaHei', Arial, sans-serif" font-size="20" font-weight="700">② Motif probes</text><text font-size="16" font-family="'Microsoft YaHei', Arial, sans-serif" fill="#F4F7FB" x="354" y="324">GEMM / Conv</text><text font-size="16" font-family="'Microsoft YaHei', Arial, sans-serif" fill="#F4F7FB" x="354" y="352">attention / KV</text><text font-size="16" font-family="'Microsoft YaHei', Arial, sans-serif" fill="#F4F7FB" x="354" y="380">small measured set</text><path d="M542 317 L588 317" stroke="#A78BFA" stroke-width="3" /><polygon points="588,317 572,308 572,326" fill="#A78BFA" />
<path fill="#162235" stroke="#FFB454" stroke-width="2" d="M614,232 H796 A14,14 0 0 1 810,246 V388 A14,14 0 0 1 796,402 H614 A14,14 0 0 1 600,388 V246 A14,14 0 0 1 614,232 Z" /><text x="624" y="276" fill="#FFB454" font-family="'Microsoft YaHei', Arial, sans-serif" font-size="20" font-weight="700">③ Surrogate rank</text><text font-size="16" font-family="'Microsoft YaHei', Arial, sans-serif" fill="#F4F7FB" x="624" y="324">预测 cycles</text><text font-size="16" font-family="'Microsoft YaHei', Arial, sans-serif" fill="#F4F7FB" x="624" y="352">识别瓶颈</text><text font-size="16" font-family="'Microsoft YaHei', Arial, sans-serif" fill="#F4F7FB" x="624" y="380">选信息量最大点</text><path d="M812 317 L858 317" stroke="#FFB454" stroke-width="3" /><polygon points="858,317 842,308 842,326" fill="#FFB454" />
<path fill="#162235" stroke="#36D6B5" stroke-width="2" d="M884,232 H1066 A14,14 0 0 1 1080,246 V388 A14,14 0 0 1 1066,402 H884 A14,14 0 0 1 870,388 V246 A14,14 0 0 1 884,232 Z" /><text x="894" y="276" fill="#36D6B5" font-family="'Microsoft YaHei', Arial, sans-serif" font-size="20" font-weight="700">④ Measured gate</text><text font-size="16" font-family="'Microsoft YaHei', Arial, sans-serif" fill="#F4F7FB" x="894" y="324">TOGSim 验证</text><text font-size="16" font-family="'Microsoft YaHei', Arial, sans-serif" fill="#F4F7FB" x="894" y="352">更新轨迹</text><text font-size="16" font-family="'Microsoft YaHei', Arial, sans-serif" fill="#F4F7FB" x="894" y="380">排除假阳性</text><path d="M1082 317 L1128 317" stroke="#36D6B5" stroke-width="3" /><polygon points="1128,317 1112,308 1112,326" fill="#36D6B5" />
<path fill="#162235" stroke="#F4F7FB" d="M1154,232 H1206 A14,14 0 0 1 1220,246 V388 A14,14 0 0 1 1206,402 H1154 A14,14 0 0 1 1140,388 V246 A14,14 0 0 1 1154,232 Z" /><text x="1180" y="286" text-anchor="middle" fill="#F4F7FB" font-family="'Microsoft YaHei', Arial, sans-serif" font-size="18" font-weight="700">Pareto</text><text x="1180" y="326" text-anchor="middle" fill="#AAB8CC" font-family="'Microsoft YaHei', Arial, sans-serif" font-size="15">verdict</text>
<path fill="#1B2B40" stroke="#2A3A52" d="M74,486 H1206 A14,14 0 0 1 1220,500 V584 A14,14 0 0 1 1206,598 H74 A14,14 0 0 1 60,584 V500 A14,14 0 0 1 74,486 Z" />
<text x="88" y="528" fill="#F4F7FB" font-family="'Microsoft YaHei', Arial, sans-serif" font-size="22" font-weight="700">第一阶段的研究问题</text><text x="88" y="568" fill="#36D6B5" font-family="'Microsoft YaHei', Arial, sans-serif" font-size="19">少量 TOGSim measured runs，能否预测并筛掉大部分不可能成为 Pareto 最优的 HW × mapping 组合？</text>
<text x="1168" y="672" fill="#718096" font-family="Consolas, 'Courier New', monospace" font-size="12">16 / 16</text>
</svg>