<svg xmlns="http://www.w3.org/2000/svg" width="1280" height="720" viewBox="0 0 1280 720"><rect width="1280" height="720" fill="#0B1220"/>
<g id="header" font-family="'Microsoft YaHei', 'Noto Sans CJK SC', Arial, sans-serif"><text x="56" y="64" fill="#36D6B5" font-size="14">01 · LUMINA</text><text x="56" y="115" fill="#F4F7FB" font-family="Georgia, 'Microsoft YaHei', 'Noto Serif CJK SC', serif" font-size="36" font-weight="700">Lumina：把模拟器知识变成下一次搜索的依据</text><text x="56" y="158" fill="#AAB8CC" font-size="18">先建立架构启发式知识 AHK，再用瓶颈反馈选择候选并修正认识。</text></g>
<g id="knowledge" font-family="'Microsoft YaHei', 'Noto Sans CJK SC', Arial, sans-serif"><rect x="56" y="212" width="1168" height="150" rx="12" fill="#162235"/><text x="82" y="252" fill="#A78BFA" font-size="24" font-weight="700">知识构建</text><text x="292" y="258" fill="#4DA3FF" font-size="26" font-weight="700">QualE</text><text x="292" y="301" fill="#F4F7FB" font-size="18">读取源码 → 参数与指标的影响关系</text><text x="760" y="258" fill="#A78BFA" font-size="26" font-weight="700">QuanE</text><text x="760" y="301" fill="#F4F7FB" font-size="18">局部微扰 → 方向与影响强度</text><text x="292" y="337" fill="#718096" font-size="16">关系与权重组成可更新的 AHK，而非已证明的因果模型</text></g>
<g id="loop" font-family="'Microsoft YaHei', 'Noto Sans CJK SC', Arial, sans-serif"><rect x="56" y="407" width="235" height="139" rx="10" fill="#162235" stroke="#FFB454"/><text x="84" y="453" fill="#FFB454" font-size="26" font-weight="700">SE · 制定策略</text><text x="84" y="497" fill="#AAB8CC" font-size="18">瓶颈 + 资源权衡</text><rect x="367" y="407" width="235" height="139" rx="10" fill="#162235" stroke="#4DA3FF"/><text x="395" y="453" fill="#4DA3FF" font-size="26" font-weight="700">EE · 执行评估</text><text x="395" y="497" fill="#AAB8CC" font-size="18">配置序列化 + 模拟</text><rect x="679" y="407" width="235" height="139" rx="10" fill="#162235" stroke="#36D6B5"/><text x="707" y="453" fill="#36D6B5" font-size="26" font-weight="700">Simulator</text><text x="707" y="497" fill="#AAB8CC" font-size="18">PPA + 关键路径反馈</text><rect x="990" y="407" width="234" height="139" rx="10" fill="#162235" stroke="#A78BFA"/><text x="1018" y="453" fill="#A78BFA" font-size="26" font-weight="700">TM · 记忆轨迹</text><text x="1018" y="497" fill="#AAB8CC" font-size="18">结果 + 失败 + 修正</text><path d="M292 476 H351 M602 476 H663 M914 476 H974" fill="none" stroke="#4DA3FF" stroke-width="2"/><polygon points="355,476 344,470 344,482" fill="#4DA3FF"/><polygon points="667,476 656,470 656,482" fill="#4DA3FF"/><polygon points="978,476 967,470 967,482" fill="#4DA3FF"/><path d="M1107 548 V596 H174 V550" fill="none" stroke="#A78BFA" stroke-width="2" stroke-dasharray="7 6"/><text x="427" y="632" fill="#F4F7FB" font-size="20">每次评估都改变下一轮的选择依据</text></g>
<text x="56" y="683" fill="#718096" font-family="'Microsoft YaHei', 'Noto Sans CJK SC', Arial, sans-serif" font-size="12">来源：LUMINA §3，arXiv:2603.05904。</text><text x="1160" y="683" fill="#718096" font-family="Consolas, 'Courier New', monospace" font-size="12">03 / 24</text></svg>
